<svg xmlns="http://www.w3.org/2000/svg" x="0px" y="0px" width="50" height="50" viewBox="0,0,256,256"
style="fill:#4D4D4D;">
<g fill="#4d4d4d" fill-rule="nonzero" stroke="none" stroke-width="1" stroke-linecap="butt" stroke-linejoin="miter" stroke-miterlimit="10" stroke-dasharray="" stroke-dashoffset="0" font-family="none" font-weight="none" font-size="none" text-anchor="none" style="mix-blend-mode: normal"><g transform="scale(10.66667,10.66667)"><path d="M3,4c-1.654,0 -3,1.346 -3,3v8c0,1.654 1.346,3 3,3h7.625l6.375,2l-0.4707,-2h4.4707c1.654,0 3,-1.346 3,-3v-8c0,-1.654 -1.346,-3 -3,-3zM3,6h18c0.551,0 1,0.449 1,1v8c0,0.551 -0.449,1 -1,1h-4.4707h-2.52344l0.24414,1.04102l-3.02539,-0.94922l-0.29297,-0.0918h-0.30664h-7.625c-0.551,0 -1,-0.449 -1,-1v-8c0,-0.551 0.449,-1 1,-1zM10.24805,7c-0.29138,0.00127 -0.57216,0.17489 -0.69141,0.46289c-0.439,1.055 -0.74706,2.38664 -0.91406,3.93164c-0.502,-1.411 -0.7782,-2.76902 -0.7832,-2.79102c-0.065,-0.325 -0.33511,-0.56861 -0.66211,-0.59961c-0.334,-0.037 -0.63962,0.15789 -0.76562,0.46289l-1.36914,3.34766c-0.25,-1.198 -0.5035,-2.7087 -0.5625,-4.0957c-0.016,-0.414 -0.3803,-0.7508 -0.7793,-0.7168c-0.414,0.016 -0.73675,0.3653 -0.71875,0.7793c0.127,3.054 1.11034,6.52783 1.15234,6.67383c0.087,0.308 0.36264,0.52497 0.68164,0.54297c0.314,0.019 0.61337,-0.16884 0.73438,-0.46484l1.40039,-3.42187c0.379,1.211 0.94445,2.65356 1.68945,3.60156c0.146,0.184 0.36384,0.28711 0.58984,0.28711c0.082,0 0.16414,-0.01402 0.24414,-0.04102c0.302,-0.105 0.50586,-0.38998 0.50586,-0.70898c0,-2.547 0.33541,-4.75389 0.94141,-6.21289c0.159,-0.381 -0.0213,-0.81952 -0.4043,-0.97852c-0.09425,-0.03975 -0.19194,-0.05902 -0.28906,-0.05859zM13.75,8c-1.094,0.004 -2.11102,1.06341 -2.41602,2.56641c-0.193,0.956 -0.04737,1.91817 0.39063,2.57617c0.297,0.445 0.70278,0.73022 1.17578,0.82422c0.112,0.022 0.22494,0.0332 0.33594,0.0332c1.095,0 2.12369,-1.05545 2.42969,-2.56445c0.193,-0.956 0.04737,-1.91817 -0.39062,-2.57617c-0.297,-0.445 -0.70373,-0.73022 -1.17774,-0.82422c-0.117,-0.024 -0.23266,-0.03516 -0.34766,-0.03516zM19,8c-1.093,0.004 -2.11002,1.06341 -2.41602,2.56641c-0.193,0.956 -0.04738,1.91817 0.39063,2.57617c0.297,0.445 0.70278,0.73022 1.17578,0.82422c0.112,0.022 0.22494,0.0332 0.33594,0.0332c1.095,0 2.12369,-1.05545 2.42969,-2.56445c0.193,-0.956 0.04738,-1.91817 -0.39062,-2.57617c-0.297,-0.445 -0.70373,-0.73022 -1.17773,-0.82422c-0.117,-0.024 -0.23266,-0.03516 -0.34766,-0.03516zM13.76758,9.50195c0.012,0 0.02511,0.00191 0.03711,0.00391c0.094,0.019 0.17366,0.11059 0.22266,0.18359c0.163,0.246 0.30597,0.77222 0.16797,1.44922c-0.187,0.928 -0.739,1.40342 -1,1.35742c-0.094,-0.019 -0.1717,-0.11059 -0.2207,-0.18359c-0.163,-0.246 -0.30597,-0.77222 -0.16797,-1.44922c0.179,-0.887 0.69994,-1.36133 0.96094,-1.36133zM19.01758,9.50195c0.012,0 0.02511,0.00191 0.03711,0.00391c0.094,0.019 0.17366,0.11059 0.22266,0.18359c0.163,0.246 0.30597,0.77222 0.16797,1.44922c-0.187,0.928 -0.746,1.40342 -1,1.35742c-0.094,-0.019 -0.1717,-0.11059 -0.2207,-0.18359c-0.163,-0.246 -0.30597,-0.77222 -0.16797,-1.44922c0.179,-0.887 0.69994,-1.36133 0.96094,-1.36133z"></path></g></g>
</svg>